<?xml version="1.0" encoding="UTF-8" standalone="no"?>
<!-- Created with Inkscape (http://www.inkscape.org/) -->

<svg
   xmlns:dc="http://purl.org/dc/elements/1.1/"
   xmlns:cc="http://creativecommons.org/ns#"
   xmlns:rdf="http://www.w3.org/1999/02/22-rdf-syntax-ns#"
   xmlns:svg="http://www.w3.org/2000/svg"
   xmlns="http://www.w3.org/2000/svg"
   xmlns:xlink="http://www.w3.org/1999/xlink"
   xmlns:sodipodi="http://sodipodi.sourceforge.net/DTD/sodipodi-0.dtd"
   xmlns:inkscape="http://www.inkscape.org/namespaces/inkscape"
   width="700"
   height="700"
   viewBox="0 0 185.20833 185.20834"
   version="1.1"
   id="svg8"
   inkscape:version="0.92.4 (5da689c313, 2019-01-14)"
   sodipodi:docname="rysunek.svg">
  <defs
     id="defs2" />
  <sodipodi:namedview
     id="base"
     pagecolor="#ffffff"
     bordercolor="#666666"
     borderopacity="1.0"
     inkscape:pageopacity="0.0"
     inkscape:pageshadow="2"
     inkscape:zoom="0.7"
     inkscape:cx="127.33947"
     inkscape:cy="644.1385"
     inkscape:document-units="mm"
     inkscape:current-layer="layer1"
     showgrid="false"
     units="px"
     inkscape:window-width="2560"
     inkscape:window-height="1417"
     inkscape:window-x="1912"
     inkscape:window-y="-8"
     inkscape:window-maximized="1" />
  <metadata
     id="metadata5">
    <rdf:RDF>
      <cc:Work
         rdf:about="">
        <dc:format>image/svg+xml</dc:format>
        <dc:type
           rdf:resource="http://purl.org/dc/dcmitype/StillImage" />
        <dc:title></dc:title>
      </cc:Work>
    </rdf:RDF>
  </metadata>
  <g
     inkscape:label="Layer 1"
     inkscape:groupmode="layer"
     id="layer1"
     transform="translate(0,-111.79165)">
    <g
       transform="translate(3.7643709,21.460953)"
       id="layer1-7"
       inkscape:label="Layer 1">
      <flowRoot
         transform="scale(0.26458333)"
         style="font-style:normal;font-variant:normal;font-weight:normal;font-stretch:normal;font-size:40px;line-height:1.25;font-family:Raleway;-inkscape-font-specification:Raleway;letter-spacing:0px;word-spacing:0px;fill:#000000;fill-opacity:1;stroke:none"
         id="flowRoot10"
         xml:space="preserve"><flowRegion
           id="flowRegion12"><rect
             y="251.09111"
             x="174.28572"
             height="225.71426"
             width="171.4286"
             id="rect14" /></flowRegion><flowPara
           style="font-size:192px"
           id="flowPara16">SP</flowPara></flowRoot>      <text
         id="text20"
         y="143.91963"
         x="88.635414"
         style="font-style:normal;font-variant:normal;font-weight:normal;font-stretch:normal;font-size:10.58333302px;line-height:1.25;font-family:Raleway;-inkscape-font-specification:Raleway;letter-spacing:0px;word-spacing:0px;fill:#000000;fill-opacity:1;stroke:none;stroke-width:0.26458332"
         xml:space="preserve"><tspan
           style="font-size:50.79999924px;stroke-width:0.26458332"
           y="153.71643"
           x="88.635414"
           id="tspan18"
           sodipodi:role="line" /></text>
      <flowRoot
         transform="scale(0.26458333)"
         style="font-style:normal;font-variant:normal;font-weight:normal;font-stretch:normal;font-size:40px;line-height:1.25;font-family:Raleway;-inkscape-font-specification:Raleway;letter-spacing:0px;word-spacing:0px;fill:#000000;fill-opacity:1;stroke:none"
         id="flowRoot30"
         xml:space="preserve"><flowRegion
           id="flowRegion32"><rect
             y="271.80539"
             x="172.85715"
             height="151.42857"
             width="153.57143"
             id="rect34" /></flowRegion><flowPara
           id="flowPara36" /></flowRoot>      <flowRoot
         transform="scale(0.26458333)"
         style="font-style:normal;font-variant:normal;font-weight:normal;font-stretch:normal;font-size:40px;line-height:1.25;font-family:Raleway;-inkscape-font-specification:Raleway;letter-spacing:0px;word-spacing:0px;fill:#000000;fill-opacity:1;stroke:none"
         id="flowRoot38"
         xml:space="preserve"><flowRegion
           id="flowRegion40"><rect
             y="432.51968"
             x="253.57143"
             height="42.142857"
             width="68.571426"
             id="rect42" /></flowRegion><flowPara
           id="flowPara44" /></flowRoot>      <g
         id="text4556"
         style="font-style:normal;font-variant:normal;font-weight:normal;font-stretch:normal;font-size:144.36442566px;line-height:1.25;font-family:Raleway;-inkscape-font-specification:Raleway;letter-spacing:0px;word-spacing:0px;fill:#000000;fill-opacity:1;stroke:none;stroke-width:3.60911059"
         transform="matrix(0.8613996,0,0,1.1609014,-12.395833,55.895829)"
         aria-label="SP">
        <flowRoot
           style="font-style:normal;font-variant:normal;font-weight:normal;font-stretch:normal;font-size:40px;line-height:1.25;font-family:Raleway;-inkscape-font-specification:Raleway;letter-spacing:0px;word-spacing:0px;fill:#000000;fill-opacity:1;stroke:none"
           id="flowRoot4623"
           xml:space="preserve"><flowRegion
             id="flowRegion4625"><rect
               y="159.77042"
               x="217.08179"
               height="253.85133"
               width="270.11478"
               id="rect4627" /></flowRegion><flowPara
             id="flowPara4629" /></flowRoot>        <g
           id="text4633"
           style="font-style:normal;font-variant:normal;font-weight:normal;font-stretch:normal;font-size:137.07286072px;line-height:1.25;font-family:Raleway;-inkscape-font-specification:Raleway;letter-spacing:0px;word-spacing:0px;fill:#000000;fill-opacity:1;stroke:none;stroke-width:12.36777782"
           transform="matrix(1.0345148,0,0,0.96663672,-3.6922555,-5.3182175)"
           aria-label="PS">
          <path
             d="m 81.900391,99.462891 v 81.291019 h 9.595703 V 152.5332 a 14.039484,17.679435 0 0 1 -0.08594,-0.83984 v -9.33789 a 14.039484,17.679435 0 0 1 0.08594,-0.82422 v -5.18945 -28.93946 c -1.467112,-0.7723 -2.840676,-1.6161 -4.115235,-2.53906 -2.140723,-1.55017 -3.987772,-3.36063 -5.480468,-5.400389 z"
             inkscape:href="#path4635"
             id="path4648"
             style="opacity:0.49599998;stroke-width:12.36777782"
             xlink:href="#path4635"
             inkscape:original="M 81.900391 99.462891 L 81.900391 180.75391 L 91.496094 180.75391 L 91.496094 152.5332 A 14.039484 17.679435 0 0 1 91.410156 151.69336 L 91.410156 142.35547 A 14.039484 17.679435 0 0 1 91.496094 141.53125 L 91.496094 136.3418 L 91.496094 107.40234 C 90.028982 106.63004 88.655418 105.78624 87.380859 104.86328 C 85.240136 103.31311 83.393087 101.50265 81.900391 99.462891 z "
             inkscape:radius="-0.00086937501"
             sodipodi:type="inkscape:offset" />
          <path
             id="path4635"
             transform="matrix(0.29690746,0,0,0.23577832,17.479301,55.312262)"
             d="M 216.97656,187.25781 V 532.0332 h 32.31641 V 412.33984 a 14.039484,17.679435 0 0 1 -0.28906,-3.56054 v -39.60547 a 14.039484,17.679435 0 0 1 0.28906,-3.4961 V 343.67188 220.92969 c -4.94131,-3.27554 -9.56855,-6.85502 -13.86133,-10.76953 -7.21007,-6.57468 -13.4276,-14.25117 -18.45508,-22.90235 z"
             style="opacity:1;fill:#daa520;fill-opacity:1;stroke-width:46.74435806"
             inkscape:connector-curvature="0" />
          <path
             inkscape:connector-curvature="0"
             id="path4637"
             d="m 116.55593,56.666145 c -5.11739,0 -9.77834,0.639576 -13.98191,1.918923 -4.203567,1.187964 -7.858869,2.970067 -10.965857,5.345997 -3.106985,2.284548 -5.528114,5.208716 -7.264376,8.772611 -1.644873,3.472513 -2.467461,7.447511 -2.467461,11.925225 0,3.929422 0.639533,7.264844 1.91888,10.006304 1.370727,2.650075 3.380859,4.934678 6.030933,6.853685 2.650074,1.91902 5.89437,3.51819 9.732419,4.79754 3.838042,1.27935 8.315932,2.51311 13.433322,3.70107 4.84324,1.09658 9.09261,2.1928 12.74788,3.28939 3.65528,1.09658 6.71653,2.42204 9.18384,3.97553 2.46731,1.46212 4.29496,3.24376 5.48293,5.34554 1.27935,2.01041 1.91888,4.52332 1.91888,7.53892 0,5.66568 -2.19318,9.91531 -6.57952,12.74815 -4.29494,2.74145 -10.32649,4.11184 -18.09395,4.11184 -3.74666,0 -7.31044,-0.31956 -10.69157,-0.95923 -3.38114,-0.73105 -6.60173,-1.65552 -9.594985,-2.87861 -0.612496,-0.25028 -1.204164,-0.52277 -1.786664,-0.80404 v 9.33765 c 6.713669,2.53289 13.979339,3.80284 21.799499,3.80284 5.11739,0 9.82324,-0.50249 14.11818,-1.50769 4.29496,-1.09659 7.99632,-2.7416 11.1033,-4.93476 3.10699,-2.19317 5.52812,-4.9344 7.26438,-8.22416 1.73625,-3.28974 2.60489,-7.17351 2.60489,-11.65122 0,-4.38633 -0.77711,-8.04178 -2.33061,-10.96599 -1.55349,-2.92423 -3.79214,-5.3913 -6.71637,-7.40169 -2.92422,-2.10179 -6.488,-3.83804 -10.69156,-5.20877 -4.1122,-1.37073 -8.77314,-2.60449 -13.98191,-3.70108 -4.66048,-1.0052 -8.72679,-2.010649 -12.1993,-3.015841 -3.38113,-1.005203 -6.16837,-2.19311 -8.36154,-3.563843 -2.19317,-1.370728 -3.837761,-2.969897 -4.934347,-4.797537 -1.005201,-1.919019 -1.507735,-4.340698 -1.507735,-7.26492 0,-5.574296 1.964646,-9.96055 5.89408,-13.158916 3.929422,-3.28975 10.188912,-4.934307 18.778812,-4.934307 5.84844,0 11.0574,0.959133 15.6265,2.878154 4.5691,1.91902 8.2244,4.432395 10.96586,7.53938 l 4.66005,-7.67615 c -4.11218,-3.563894 -8.7265,-6.305591 -13.84389,-8.224611 -5.026,-2.010402 -10.78297,-3.015384 -17.27108,-3.015384 z"
             style="opacity:1;fill:#daa520;fill-opacity:1;stroke-width:12.36777782" />
        </g>
      </g>
    </g>
  </g>
</svg>
